<?xml version="1.0" encoding="utf-8"?>
<!-- Generator: Adobe Illustrator 19.1.1, SVG Export Plug-In . SVG Version: 6.00 Build 0)  -->
<svg version="1.1" id="Ebene_1" xmlns="http://www.w3.org/2000/svg" xmlns:xlink="http://www.w3.org/1999/xlink" x="0px" y="0px"
	 viewBox="0 0 229 300" style="enable-background:new 0 0 229 300;" xml:space="preserve">
<style type="text/css">
	.st0{fill-rule:evenodd;clip-rule:evenodd;}
	.st1{fill:#FFFFFF;}
	.st2{fill:#4880C1;}
	.st3{fill-rule:evenodd;clip-rule:evenodd;fill:#C7438E;}
</style>
<g>
	<path class="st0" d="M111.4-18c-25.6,0-50-9-67-24.8C33.5-52.9,25.9-65.3,21.7-79.6c-2.2-7.5-3.4-15.5-3.6-23.7
		c-0.2-8.4,0.6-17.3,2.5-26.5c3.8-18.8,12.1-39.2,24.5-60.4c6.6-11.2,14.1-22.4,23-34.2c9.2-12.2,19.4-24.3,31-37l12.3-13.4
		l12.3,13.4c11.7,12.7,21.8,24.8,31,37c8.9,11.8,16.4,22.9,23,34.1c12.4,21.2,20.7,41.5,24.5,60.4c1.8,9.1,2.7,18,2.5,26.5
		c-0.2,8.3-1.4,16.3-3.6,23.7c-4.2,14.4-11.8,26.8-22.6,36.8C161.4-27,137-18,111.4-18L111.4-18z"/>
	<path class="st1" d="M111.4-252.6l1.2,1.4c10.6,11.5,20.7,23.5,30.1,35.9c7.9,10.5,15.4,21.4,22,32.7c10,17.1,18.8,36.2,22.7,55.8
		c1.5,7.6,2.4,15.4,2.2,23.1c-0.2,6.7-1.1,13.4-3,19.9c-3.4,11.6-9.6,21.8-18.5,30C153-39.7,131.9-33,111.4-33
		c-20.5,0-41.6-6.7-56.8-20.8c-8.9-8.2-15.1-18.4-18.4-30c-1.9-6.5-2.8-13.2-3-19.9c-0.2-7.8,0.6-15.5,2.2-23.1
		c4-19.6,12.7-38.6,22.7-55.8c6.6-11.3,14.1-22.2,22-32.7c9.4-12.5,19.6-24.4,30.1-35.9L111.4-252.6 M111.4-297l-22.1,24.1l-1.2,1.4
		c-12,13.1-22.4,25.5-31.9,38.1c-9.3,12.2-17.1,23.9-24,35.6c-13.5,23-22,44.2-26.2,65c-2.1,10.2-3,20.2-2.8,29.8
		c0.2,9.6,1.6,18.9,4.2,27.6c4.9,17,14,31.7,26.8,43.6c10.4,9.6,22.8,17,36.8,22C83.8-5.3,97.4-3,111.4-3c14,0,27.6-2.3,40.4-6.8
		c14.1-5,26.5-12.4,36.8-22c12.9-11.9,21.9-26.6,26.8-43.6c2.5-8.7,3.9-18,4.2-27.6c0.2-9.6-0.7-19.6-2.8-29.8
		c-4.2-20.8-12.8-42-26.2-65c-6.9-11.7-14.7-23.4-24-35.6c-9.5-12.6-19.9-25-31.9-38.1l-1.2-1.3L111.4-297L111.4-297z"/>
</g>
<g>
	<g>
		<path d="M-182.9-20.2c-4.9,0-9.4-1.9-12.9-5.3l-100.9-100.2c-3.1-2.6-6-5.5-8.6-8.6c-6.6-7.7-11.7-16.4-15.1-26
			c-3.1-8.7-4.6-17.8-4.6-27c0-44.9,36.5-81.4,81.4-81.4c23.4,0,45.3,10.1,60.5,27c15.2-16.9,37.1-27,60.5-27
			c44.9,0,81.4,36.5,81.4,81.4c0,9.5-1.6,18.8-4.8,27.6c-2.7,7.5-6.6,14.7-11.4,21.1l0.4,0.8l-8,8L-170.1-25.5
			C-173.5-22.1-178.1-20.2-182.9-20.2z"/>
		<path class="st1" d="M-122.6-253.8c36.6,0,66.4,29.8,66.4,66.4c0,7.9-1.4,15.5-3.9,22.5c-3.3,9.2-8.7,17.5-15.5,24.4l0,0
			L-180.6-36.1c-0.6,0.6-1.4,0.9-2.3,0.9c-0.8,0-1.6-0.3-2.3-0.9l-101.3-100.6c-2.7-2.3-5.1-4.7-7.4-7.4
			c-5.3-6.2-9.5-13.4-12.3-21.2c-2.4-6.9-3.8-14.3-3.8-22c0-36.6,29.8-66.4,66.4-66.4c26.9,0,50.1,16,60.5,39
			C-172.6-237.8-149.5-253.8-122.6-253.8 M-122.6-283.8c-22.4,0-43.7,7.8-60.5,21.4c-16.8-13.6-38.1-21.4-60.5-21.4
			c-53.2,0-96.4,43.3-96.4,96.4c0,11,1.8,21.7,5.5,32c4,11.3,10,21.7,17.9,30.8c3,3.5,6.3,6.8,9.8,9.8l100.5,99.8
			c6.3,6.3,14.6,9.7,23.4,9.7c8.8,0,17.2-3.4,23.4-9.7l105.1-104.4l16-15.8l-1.5-2.7c3.2-5.4,6-11,8.1-16.9
			c3.8-10.5,5.7-21.5,5.7-32.7C-26.2-240.6-69.4-283.8-122.6-283.8L-122.6-283.8z"/>
	</g>
</g>
<g>
	<g>
		<path class="st2" d="M-181.9,276.8c-4.9,0-9.4-1.9-12.9-5.3l-100.9-100.2c-3.1-2.6-6-5.5-8.6-8.6c-6.6-7.7-11.7-16.4-15.1-26
			c-3.1-8.7-4.6-17.8-4.6-27c0-44.9,36.5-81.4,81.4-81.4c23.4,0,45.3,10.1,60.5,27c15.2-16.9,37.1-27,60.5-27
			c44.9,0,81.4,36.5,81.4,81.4c0,9.5-1.6,18.8-4.8,27.6c-2.7,7.5-6.6,14.7-11.4,21.1l0.4,0.8l-8,8l-105.1,104.4
			C-172.5,274.9-177.1,276.8-181.9,276.8z"/>
		<path class="st1" d="M-121.6,43.2c36.6,0,66.4,29.8,66.4,66.4c0,7.9-1.4,15.5-3.9,22.5c-3.3,9.2-8.7,17.5-15.5,24.4l0,0
			l-105.1,104.4c-0.6,0.6-1.4,0.9-2.3,0.9c-0.8,0-1.6-0.3-2.3-0.9l-101.3-100.6c-2.7-2.3-5.1-4.7-7.4-7.4
			c-5.3-6.2-9.5-13.4-12.3-21.2c-2.4-6.9-3.8-14.3-3.8-22c0-36.6,29.8-66.4,66.4-66.4c26.9,0,50.1,16,60.5,39
			C-171.6,59.2-148.5,43.2-121.6,43.2 M-121.6,13.2c-22.4,0-43.7,7.8-60.5,21.4c-16.8-13.6-38.1-21.4-60.5-21.4
			c-53.2,0-96.4,43.3-96.4,96.4c0,11,1.8,21.7,5.5,32c4,11.3,10,21.7,17.9,30.8c3,3.5,6.3,6.8,9.8,9.8l100.5,99.8
			c6.3,6.3,14.6,9.7,23.4,9.7c8.8,0,17.2-3.4,23.4-9.7l105.1-104.4l16-15.8l-1.5-2.7c3.2-5.4,6-11,8.1-16.9
			c3.8-10.5,5.7-21.5,5.7-32.7C-25.2,56.4-68.4,13.2-121.6,13.2L-121.6,13.2z"/>
	</g>
</g>
<g>
	<path class="st3" d="M114.4,282c-25.6,0-50-9-67-24.8c-10.8-10.1-18.5-22.5-22.6-36.8c-2.2-7.5-3.4-15.5-3.6-23.7
		c-0.2-8.4,0.6-17.3,2.5-26.5c3.8-18.8,12.1-39.2,24.5-60.4c6.6-11.2,14.1-22.4,23-34.2c9.2-12.2,19.4-24.3,31-37l12.3-13.4
		l12.3,13.4c11.7,12.7,21.8,24.8,31,37c8.9,11.8,16.4,22.9,23,34.1c12.4,21.2,20.7,41.5,24.5,60.4c1.8,9.1,2.7,18,2.5,26.5
		c-0.2,8.3-1.4,16.3-3.6,23.7c-4.2,14.4-11.8,26.8-22.6,36.8C164.4,273,140,282,114.4,282L114.4,282z"/>
	<path class="st1" d="M114.4,47.4l1.2,1.4c10.6,11.5,20.7,23.5,30.1,35.9c7.9,10.5,15.4,21.4,22,32.7c10,17.1,18.8,36.2,22.7,55.8
		c1.5,7.6,2.4,15.4,2.2,23.1c-0.2,6.7-1.1,13.4-3,19.9c-3.4,11.6-9.6,21.8-18.5,30C156,260.3,134.9,267,114.4,267
		c-20.5,0-41.6-6.7-56.8-20.8c-8.9-8.2-15.1-18.4-18.4-30c-1.9-6.5-2.8-13.2-3-19.9c-0.2-7.8,0.6-15.5,2.2-23.1
		c4-19.6,12.7-38.6,22.7-55.8c6.6-11.3,14.1-22.2,22-32.7c9.4-12.5,19.6-24.4,30.1-35.9L114.4,47.4 M114.4,3L92.3,27.1l-1.2,1.4
		C79.1,41.6,68.6,54,59.1,66.6c-9.3,12.2-17.1,23.9-24,35.6c-13.5,23-22,44.2-26.2,65c-2.1,10.2-3,20.2-2.8,29.8
		c0.2,9.6,1.6,18.9,4.2,27.6c4.9,17,14,31.7,26.8,43.6c10.4,9.6,22.8,17,36.8,22c12.8,4.5,26.4,6.8,40.4,6.8c14,0,27.6-2.3,40.4-6.8
		c14.1-5,26.5-12.4,36.8-22c12.9-11.9,21.9-26.6,26.8-43.6c2.5-8.7,3.9-18,4.2-27.6c0.2-9.6-0.7-19.6-2.8-29.8
		c-4.2-20.8-12.8-42-26.2-65c-6.9-11.7-14.7-23.4-24-35.6c-9.5-12.6-19.9-25-31.9-38.1l-1.2-1.3L114.4,3L114.4,3z"/>
</g>
</svg>
