<?xml version="1.0" encoding="utf-8"?>
<!-- Generator: Adobe Illustrator 19.1.1, SVG Export Plug-In . SVG Version: 6.00 Build 0)  -->
<svg version="1.1" id="Ebene_1" xmlns="http://www.w3.org/2000/svg" xmlns:xlink="http://www.w3.org/1999/xlink" x="0px" y="0px"
	 viewBox="0 0 250 302" style="enable-background:new 0 0 250 302;" xml:space="preserve">
<style type="text/css">
	.st0{fill-rule:evenodd;clip-rule:evenodd;}
	.st1{fill:#FFFFFF;}
</style>
<g>
	<path class="st0" d="M121.4,280c-25.6,0-50-9-67-24.8c-10.8-10.1-18.5-22.5-22.6-36.8c-2.2-7.5-3.4-15.5-3.6-23.7
		c-0.2-8.4,0.6-17.3,2.5-26.5c3.8-18.8,12.1-39.2,24.5-60.4c6.6-11.2,14.1-22.4,23-34.2c9.2-12.2,19.4-24.3,31-37l12.3-13.4
		l12.3,13.4c11.7,12.7,21.8,24.8,31,37c8.9,11.8,16.4,22.9,23,34.1c12.4,21.2,20.7,41.5,24.5,60.4c1.8,9.1,2.7,18,2.5,26.5
		c-0.2,8.3-1.4,16.3-3.6,23.7c-4.2,14.4-11.8,26.8-22.6,36.8C171.4,271,147,280,121.4,280L121.4,280z"/>
	<path class="st1" d="M121.4,45.4l1.2,1.4c10.6,11.5,20.7,23.5,30.1,35.9c7.9,10.5,15.4,21.4,22,32.7c10,17.1,18.8,36.2,22.7,55.8
		c1.5,7.6,2.4,15.4,2.2,23.1c-0.2,6.7-1.1,13.4-3,19.9c-3.4,11.6-9.6,21.8-18.5,30C163,258.3,141.9,265,121.4,265
		c-20.5,0-41.6-6.7-56.8-20.8c-8.9-8.2-15.1-18.4-18.4-30c-1.9-6.5-2.8-13.2-3-19.9c-0.2-7.8,0.6-15.5,2.2-23.1
		c4-19.6,12.7-38.6,22.7-55.8c6.6-11.3,14.1-22.2,22-32.7c9.4-12.5,19.6-24.4,30.1-35.9L121.4,45.4 M121.4,1L99.3,25.1l-1.2,1.4
		C86.1,39.6,75.6,52,66.1,64.6c-9.3,12.2-17.1,23.9-24,35.6c-13.5,23-22,44.2-26.2,65c-2.1,10.2-3,20.2-2.8,29.8
		c0.2,9.6,1.6,18.9,4.2,27.6c4.9,17,14,31.7,26.8,43.6c10.4,9.6,22.8,17,36.8,22c12.8,4.5,26.4,6.8,40.4,6.8c14,0,27.6-2.3,40.4-6.8
		c14.1-5,26.5-12.4,36.8-22c12.9-11.9,21.9-26.6,26.8-43.6c2.5-8.7,3.9-18,4.2-27.6c0.2-9.6-0.7-19.6-2.8-29.8
		c-4.2-20.8-12.8-42-26.2-65c-6.9-11.7-14.7-23.4-24-35.6c-9.5-12.6-19.9-25-31.9-38.1l-1.2-1.3L121.4,1L121.4,1z"/>
</g>
<g>
	<g>
		<path d="M-172.9,267.8c-2.2,0-4.2-0.9-5.8-2.4l-101.2-100.5c-2.8-2.4-5.4-5-7.8-7.8c-5.8-6.8-10.3-14.4-13.2-22.8
			c-2.7-7.6-4.1-15.6-4.1-23.7c0-39.4,32-71.4,71.4-71.4c24.7,0,47.5,12.9,60.5,33.5c13-20.6,35.8-33.5,60.5-33.5
			c39.4,0,71.4,32,71.4,71.4c0,8.3-1.4,16.5-4.2,24.2c-3.1,8.6-8,16.7-14.2,23.6l0,0.1L-62,161l-105.1,104.4
			C-168.7,267-170.7,267.8-172.9,267.8z"/>
		<path class="st1" d="M-112.6,44.2c36.6,0,66.4,29.8,66.4,66.4c0,7.9-1.4,15.5-3.9,22.5c-3.3,9.2-8.7,17.5-15.5,24.4l0,0
			l-105.1,104.4c-0.6,0.6-1.4,0.9-2.3,0.9c-0.8,0-1.6-0.3-2.3-0.9l-101.3-100.6c-2.7-2.3-5.1-4.7-7.4-7.4
			c-5.3-6.2-9.5-13.4-12.3-21.2c-2.4-6.9-3.8-14.3-3.8-22c0-36.6,29.8-66.4,66.4-66.4c26.9,0,50.1,16,60.5,39
			C-162.6,60.2-139.5,44.2-112.6,44.2 M-112.6,34.2c-23.9,0-46.2,11.3-60.5,29.8c-14.3-18.5-36.6-29.8-60.5-29.8
			c-42.1,0-76.4,34.3-76.4,76.4c0,8.7,1.5,17.2,4.3,25.4c3.2,9,7.9,17.2,14.2,24.4c2.5,2.9,5.3,5.7,8.2,8.2l101,100.4
			c2.5,2.5,5.8,3.8,9.3,3.8c3.5,0,6.8-1.4,9.3-3.8l105.1-104.4l5.3-5.3l-0.2-0.4c5.5-6.7,9.8-14.3,12.7-22.4c3-8.3,4.5-17,4.5-25.9
			C-36.2,68.5-70.4,34.2-112.6,34.2L-112.6,34.2z"/>
	</g>
</g>
</svg>
